<svg width="1017" height="150" viewBox="0 0 1017 150" fill="none" xmlns="http://www.w3.org/2000/svg">
<path d="M900.103 149.61C879.072 149.61 862.272 147.121 849.703 142.143L849.807 106.676C858.592 109.387 876.458 112.276 887.036 112.276C899.107 112.276 908.005 111.032 913.729 108.543C919.578 105.93 922.503 102.01 922.503 96.7831V30.1431H978.503V102.57C978.503 118.499 972.094 130.321 959.276 138.036C946.458 145.752 926.734 149.61 900.103 149.61ZM895.436 107.61C879.258 107.61 867.249 104.561 859.409 98.4631C851.694 92.3653 847.836 83.032 847.836 70.4631V64.6764C847.836 51.9831 851.694 42.5875 859.409 36.4897C867.249 30.392 879.258 27.3431 895.436 27.3431C908.378 27.3431 917.96 30.5786 924.183 37.0497C930.529 43.5208 933.703 53.4142 933.703 66.7297V74.3831C933.703 85.7075 930.529 94.1075 924.183 99.5831C917.96 104.934 908.378 107.61 895.436 107.61ZM916.903 76.8097C920.636 76.8097 922.503 74.9431 922.503 71.2097C922.503 67.4764 920.636 65.6097 916.903 65.6097C913.169 65.6097 911.303 67.4764 911.303 71.2097C911.303 74.9431 913.169 76.8097 916.903 76.8097Z" fill="black"/>
<path d="M792.634 87.0764C792.634 83.343 791.265 81.4764 788.528 81.4764C785.79 81.4764 784.421 83.343 784.421 87.0764H776.954C776.954 67.1652 780.19 48.7001 786.661 39.1179C793.256 29.4113 803.399 28.2764 817.088 28.2764C829.532 28.2764 838.679 31.6986 844.528 38.543C850.501 45.3875 853.487 55.9653 853.487 70.2764V130.943H792.601L792.634 87.0764ZM724.688 130.943V30.143H784.421V130.943H724.688Z" fill="black"/>
<path d="M662.461 130.943V30.1431H722.194V130.943H662.461Z" fill="black"/>
<path d="M603.93 130.66L605.234 0L661.232 0.55916L659.927 131.219L603.93 130.66Z" fill="black"/>
<path d="M573.689 130.943C557.138 130.943 544.88 127.085 536.916 119.37C528.951 111.654 524.969 99.8319 524.969 83.903V30.2324L584.702 7.74298V80.543C584.702 85.023 586.071 88.3208 588.809 90.4363C591.547 92.5519 595.778 93.6097 601.502 93.6097V130.943H573.689ZM519.089 67.4763L511.961 30.143H601.502V67.4763H519.089Z" fill="black"/>
<path d="M457.162 135.61C435.633 135.61 419.642 132.436 409.189 126.09C398.86 119.743 393.695 109.974 393.695 96.783L450.442 96.5963C450.442 98.463 450.878 99.8319 451.749 100.703C452.744 101.574 454.3 102.01 456.415 102.01C459.9 102.01 461.642 100.579 461.642 97.7163C461.642 95.9741 460.833 94.6674 459.215 93.7963C457.598 92.9252 455.109 92.4274 451.749 92.303L436.255 91.9297C421.82 91.5563 411.118 88.943 404.149 84.0897C397.18 79.2363 393.695 71.9563 393.695 62.2497V60.383C393.695 48.5608 398.673 39.7874 408.629 34.063C418.709 28.3385 434.14 25.4763 454.922 25.4763C475.58 25.4763 490.824 28.6497 500.655 34.9963C510.611 41.343 515.589 51.1119 515.589 64.303L460.149 64.4897C460.149 62.623 459.775 61.2541 459.029 60.383C458.406 59.5119 457.349 59.0763 455.855 59.0763C453.242 59.0763 451.935 60.5074 451.935 63.3697C451.935 65.1119 452.495 66.4185 453.615 67.2897C454.86 68.1608 456.726 68.6585 459.215 68.783L475.082 69.1563C489.269 69.5297 499.784 72.0808 506.629 76.8097C513.473 81.4141 516.895 88.3208 516.895 97.5297V99.3963C516.895 111.716 511.98 120.863 502.149 126.836C492.442 132.685 477.446 135.61 457.162 135.61Z" fill="black"/>
<path d="M333.336 130.943V30.1431H393.069V130.943H333.336Z" fill="black"/>
<path d="M270.478 87.0764C270.478 83.343 269.109 81.4764 266.371 81.4764C263.633 81.4764 262.265 83.343 262.265 87.0764H254.798C254.798 67.1653 258.033 52.4186 264.505 42.8364C271.1 33.1297 281.242 28.2764 294.931 28.2764C307.376 28.2764 316.522 31.6986 322.371 38.543C328.345 45.3875 331.331 55.9653 331.331 70.2764V130.943H270.478V87.0764ZM202.531 130.943V0.276367H262.265V130.943H202.531Z" fill="black"/>
<path d="M0 30.143H77.4167L83.2034 58.8897L88.99 30.143H126.323L132.11 58.8897L137.897 30.143H223.615L176.537 130.943H113.63L107.843 102.196L102.057 130.943H39.15L0 30.143Z" fill="black"/>
<path d="M1000.31 102.066C991.496 102.066 984.336 109.336 984.336 118.266C984.336 127.156 991.506 134.386 1000.31 134.386C1009.12 134.386 1016.28 127.156 1016.28 118.266C1016.28 109.336 1009.11 102.066 1000.31 102.066ZM1000.31 130.976C993.366 130.976 987.716 125.276 987.716 118.266C987.716 111.216 993.366 105.476 1000.31 105.476C1007.25 105.476 1012.9 111.216 1012.9 118.266C1012.89 125.276 1007.25 130.976 1000.31 130.976Z" fill="black"/>
<path d="M1007.7 115.036C1007.7 111.866 1005.43 110.046 1001.47 110.046H993.891V126.406H997.761V120.106H1001.15L1003.71 126.406H1007.84L1004.88 119.396C1005.77 118.976 1007.7 117.946 1007.7 115.036ZM1000.97 116.926H997.761V113.156H1001.26C1003.52 113.156 1003.69 114.546 1003.69 114.966C1003.69 116.586 1002.21 116.926 1000.97 116.926Z" fill="black"/>
</svg>
